<svg xmlns="http://www.w3.org/2000/svg" viewBox="0 0 1000 1000">
<defs>
<pattern id="stippleRind" patternUnits="userSpaceOnUse" width="10" height="10" viewBox="0 0 10 10">
<circle cx="2" cy="2" r="1.5" fill="#D97726"/>
<circle cx="7" cy="3" r="1.3" fill="#D97726"/>
<circle cx="5" cy="7" r="1.7" fill="#D97726"/>
<circle cx="9" cy="8" r="1.1" fill="#D97726"/>
<rect width="10" height="10" fill="#F9B97A" opacity="1"/>
</pattern>
<pattern id="stippleLeaf" patternUnits="userSpaceOnUse" width="8" height="8" viewBox="0 0 8 8">
<circle cx="1" cy="1" r="1" fill="#3D7A52"/>
<circle cx="5" cy="2" r="0.8" fill="#3D7A52"/>
<circle cx="3" cy="5" r="1.2" fill="#3D7A52"/>
<circle cx="7" cy="6" r="0.9" fill="#3D7A52"/>
<rect width="8" height="8" fill="#7DBF92" opacity="1"/>
</pattern>
</defs>

<g id="lemon-sprig" transform="translate(500, 500)">
<circle r="360" fill="#F9B97A"/>
<g id="membranes" stroke="#FFF3E8" stroke-width="20" stroke-linecap="round">
  <line x1="0" y1="-30" x2="0" y2="-360"/>
  <line x1="0" y1="30" x2="0" y2="360"/>
  <line x1="-30" y1="0" x2="-360" y2="0"/>
  <line x1="30" y1="0" x2="360" y2="0"/>
  <line x1="-21" y1="-21" x2="-254" y2="-254"/>
  <line x1="21" y1="21" x2="254" y2="254"/>
  <line x1="-21" y1="21" x2="-254" y2="254"/>
  <line x1="21" y1="-21" x2="254" y2="-254"/>
  <circle cx="0" cy="0" r="40" fill="white"/>
</g>
<circle r="360" fill="transparent"  stroke="#D97726" stroke-width="30"/>
</g>

</svg>
